<svg xmlns="http://www.w3.org/2000/svg" width="128" height="128" fill="none" viewBox="0 0 128 128" id="contact">
  <path stroke="#000" stroke-width="4" d="M65.9802 49.3304L64.5842 28.7891M65.5814 99.5869L65.382 78.6467M64.5573 29.8784C65.2915 29.7543 66.0032 29.6306 66.6766 29.5092 71.7534 28.5939 76.3018 32.6752 75.8501 37.6997L75.3598 43.1528C75.032 46.7981 71.5975 49.3414 68.0151 48.5915L66.9055 48.3592C64.8927 47.9379 62.874 49.0506 62.1556 50.9776 59.024 59.3768 59.024 68.6232 62.1556 77.0224 62.874 78.9494 64.8927 80.0621 66.9055 79.6408L68.0151 79.4085C71.5975 78.6586 75.032 81.2019 75.3598 84.8472L75.8501 90.3003C76.3018 95.3248 71.7534 99.4061 66.6766 98.4908 66.0032 98.3694 65.2915 98.2457 64.5573 98.1216 56.7688 96.805 50.5179 90.9744 48.9616 83.31 46.3742 70.5667 46.3742 57.4333 48.9616 44.69 50.5179 37.0256 56.7688 31.195 64.5573 29.8784z"></path>
  <path stroke="#000" stroke-width="4" d="M34 118H92C98.6274 118 104 112.627 104 106V81 51.5 22C104 15.3726 98.6274 10 92 10H65 34C27.3726 10 22 15.3726 22 22V106C22 112.627 27.3726 118 34 118zM104 19V19C108.418 19 112 22.5817 112 27V53.5833 78.1667 101C112 105.418 108.418 109 104 109V109"></path>
  <path stroke="#000" stroke-linecap="round" stroke-width="4" d="M29 28L15 28M29 52L15 52M29 76L15 76M29 100L15 100"></path>
</svg>