<svg xmlns="http://www.w3.org/2000/svg" width="96" height="96" fill="none" viewBox="0 0 96 96" id="file-code">
  <path stroke="#000" stroke-width="5" d="M34 86H62C70.2843 86 77 79.2843 77 71V35.1567C77 31.9895 75.7479 28.9508 73.5167 26.7029L60.4572 13.5462C58.2042 11.2765 55.1385 10 51.9405 10H34C25.7157 10 19 16.7157 19 25V71C19 79.2843 25.7157 86 34 86Z"></path>
  <path stroke="#000" stroke-width="5" d="M55 11V25C55 28.866 58.134 32 62 32H77"></path>
  <path stroke="#000" stroke-linecap="round" stroke-width="5" d="M41.2422 49L33.7422 56.668C32.7526 57.6798 32.7526 59.3202 33.7422 60.3321L41.2422 68M54.7578 49L62.2578 56.6679C63.2474 57.6798 63.2474 59.3202 62.2578 60.332L54.7578 68"></path>
</svg>